<svg width="16" height="18" viewBox="0 0 16 18" fill="none" xmlns="http://www.w3.org/2000/svg">
<g clip-path="url(#clip0_918_1132)">
<path d="M1.49995 15.7768C1.45051 15.7768 1.40218 15.7616 1.36108 15.7332C1.31998 15.7047 1.28794 15.6643 1.26903 15.617C1.25011 15.5697 1.24516 15.5176 1.2548 15.4674C1.26444 15.4172 1.28824 15.371 1.3232 15.3348L14.3232 1.87055C14.3463 1.84582 14.3738 1.8261 14.4043 1.81253C14.4348 1.79896 14.4677 1.79181 14.5008 1.79151C14.534 1.79121 14.567 1.79777 14.5977 1.81079C14.6284 1.8238 14.6563 1.84303 14.6798 1.86734C14.7033 1.89165 14.7218 1.92056 14.7344 1.95239C14.747 1.98421 14.7533 2.0183 14.753 2.05268C14.7527 2.08706 14.7458 2.12104 14.7327 2.15263C14.7196 2.18422 14.7006 2.21279 14.6767 2.23668L1.6767 15.701C1.62982 15.7495 1.56625 15.7768 1.49995 15.7768Z" fill="black"/>
<path d="M4.50015 11.4643C4.46712 11.4641 4.43445 11.4571 4.40402 11.4438C4.3736 11.4305 4.34603 11.411 4.3229 11.3866C3.89868 10.9414 3.56346 10.4139 3.33648 9.83427C3.10949 9.25465 2.9952 8.63432 3.00015 8.00886C3.00015 5.43899 4.90665 3.34814 7.25015 3.34814C7.87623 3.35211 8.49333 3.50267 9.05527 3.78857C9.61722 4.07446 10.1095 4.48829 10.4952 4.99907C10.5345 5.05289 10.552 5.1205 10.544 5.1875C10.5359 5.2545 10.5029 5.31558 10.4519 5.35773C10.401 5.39987 10.3362 5.41975 10.2713 5.41311C10.2064 5.40648 10.1466 5.37386 10.1047 5.32222C9.76564 4.87231 9.33278 4.50762 8.83846 4.25545C8.34414 4.00327 7.80117 3.87014 7.25015 3.866C5.1824 3.866 3.50015 5.72459 3.50015 8.00886C3.4952 8.56676 3.59664 9.12018 3.79866 9.63738C4.00068 10.1546 4.2993 10.6254 4.6774 11.0228C4.71179 11.0591 4.73508 11.1051 4.74437 11.1551C4.75365 11.2051 4.74852 11.2568 4.72961 11.3037C4.7107 11.3507 4.67885 11.3908 4.63805 11.4191C4.59724 11.4475 4.54928 11.4627 4.50015 11.463V11.4643Z" fill="black"/>
<path d="M3.24986 4.1251C3.18356 4.12508 3.11998 4.09779 3.07311 4.04923L2.07311 3.01352C2.02757 2.96468 2.00237 2.89928 2.00294 2.83139C2.00351 2.7635 2.0298 2.69855 2.07615 2.65055C2.1225 2.60254 2.18521 2.57531 2.25076 2.57472C2.31631 2.57413 2.37946 2.60023 2.42661 2.64739L3.42661 3.68311C3.46156 3.71932 3.48536 3.76545 3.495 3.81567C3.50465 3.86589 3.49969 3.91794 3.48078 3.96525C3.46186 4.01255 3.42982 4.05299 3.38872 4.08144C3.34762 4.10989 3.2993 4.12509 3.24986 4.1251Z" fill="black"/>
<path d="M1.75 8.26786H0.25C0.183696 8.26786 0.120107 8.24058 0.0732233 8.19202C0.0263392 8.14346 0 8.0776 0 8.00893C0 7.94026 0.0263392 7.8744 0.0732233 7.82584C0.120107 7.77728 0.183696 7.75 0.25 7.75H1.75C1.8163 7.75 1.87989 7.77728 1.92678 7.82584C1.97366 7.8744 2 7.94026 2 8.00893C2 8.0776 1.97366 8.14346 1.92678 8.19202C1.87989 8.24058 1.8163 8.26786 1.75 8.26786Z" fill="black"/>
<path d="M2.24995 13.4464C2.20051 13.4464 2.15218 13.4312 2.11108 13.4027C2.06998 13.3743 2.03794 13.3338 2.01903 13.2865C2.00011 13.2392 1.99516 13.1872 2.0048 13.137C2.01444 13.0867 2.03824 13.0406 2.0732 13.0044L3.0732 11.9687C3.12035 11.9215 3.1835 11.8954 3.24905 11.896C3.3146 11.8966 3.3773 11.9238 3.42365 11.9718C3.47 12.0198 3.4963 12.0848 3.49687 12.1527C3.49743 12.2206 3.47224 12.286 3.4267 12.3348L2.4267 13.3705C2.37982 13.4191 2.31625 13.4464 2.24995 13.4464Z" fill="black"/>
<path d="M11.2499 4.1251C11.2005 4.12509 11.1522 4.10989 11.1111 4.08144C11.07 4.05299 11.0379 4.01255 11.019 3.96525C11.0001 3.91794 10.9952 3.86589 11.0048 3.81567C11.0144 3.76545 11.0382 3.71932 11.0732 3.68311L12.0732 2.64739C12.1203 2.60023 12.1835 2.57413 12.249 2.57472C12.3146 2.57531 12.3773 2.60254 12.4237 2.65055C12.47 2.69855 12.4963 2.7635 12.4969 2.83139C12.4974 2.89928 12.4722 2.96468 12.4267 3.01352L11.4267 4.04923C11.3798 4.09779 11.3162 4.12508 11.2499 4.1251Z" fill="black"/>
<path d="M7.25 2.57143C7.1837 2.57143 7.12011 2.54415 7.07322 2.49559C7.02634 2.44703 7 2.38117 7 2.3125V0.758929C7 0.690256 7.02634 0.624397 7.07322 0.575838C7.12011 0.52728 7.1837 0.5 7.25 0.5C7.3163 0.5 7.37989 0.52728 7.42678 0.575838C7.47366 0.624397 7.5 0.690256 7.5 0.758929V2.3125C7.5 2.38117 7.47366 2.44703 7.42678 2.49559C7.37989 2.54415 7.3163 2.57143 7.25 2.57143Z" fill="black"/>
<path d="M11.7859 17.0715C10.7712 17.0881 9.78482 16.7247 9.00822 16.048C8.23162 15.3714 7.71703 14.4271 7.55912 13.3888C7.40121 12.3506 7.61059 11.2881 8.14875 10.397C8.68691 9.50589 9.51765 8.846 10.4882 8.53873C10.5358 8.52324 10.5869 8.5229 10.6348 8.53776C10.6827 8.55262 10.7251 8.582 10.7567 8.6221C10.7883 8.66221 10.8076 8.7112 10.812 8.76276C10.8165 8.81431 10.8059 8.86606 10.7817 8.91133C10.5168 9.40615 10.3776 9.96256 10.3772 10.5283C10.3855 11.4282 10.738 12.2878 11.3574 12.9189C11.9768 13.5499 12.8126 13.9007 13.6814 13.8944C14.3676 13.8966 15.0375 13.6783 15.5989 13.2696C15.6397 13.24 15.6881 13.2236 15.7379 13.2227C15.7877 13.2218 15.8367 13.2363 15.8785 13.2643C15.9203 13.2924 15.9531 13.3328 15.9726 13.3803C15.992 13.4278 15.9974 13.4802 15.9879 13.5309C15.7913 14.5335 15.265 15.4344 14.4987 16.0801C13.7325 16.7257 12.7737 17.0761 11.7859 17.0715ZM10.0842 9.2627C9.46178 9.57746 8.9372 10.0668 8.5701 10.6751C8.20301 11.2834 8.00814 11.9863 8.00766 12.7036C8.02419 13.6145 8.34624 14.491 8.91856 15.1828C9.49088 15.8747 10.2778 16.3387 11.1443 16.4953C12.0109 16.6519 12.903 16.4913 13.6677 16.041C14.4324 15.5908 15.022 14.879 15.3354 14.0278C14.8188 14.2827 14.2536 14.4142 13.6814 14.4128C12.68 14.419 11.7171 14.0136 11.0039 13.2855C10.2908 12.5574 9.88555 11.566 9.87716 10.5289C9.87738 10.0978 9.94735 9.66981 10.0842 9.2627Z" fill="black"/>
<path d="M13.5 9.04471H12.5C12.4337 9.04471 12.3701 9.01743 12.3232 8.96887C12.2763 8.92032 12.25 8.85446 12.25 8.78578C12.25 8.71711 12.2763 8.65125 12.3232 8.60269C12.3701 8.55414 12.4337 8.52686 12.5 8.52686H13.5C13.5663 8.52686 13.6299 8.55414 13.6768 8.60269C13.7237 8.65125 13.75 8.71711 13.75 8.78578C13.75 8.85446 13.7237 8.92032 13.6768 8.96887C13.6299 9.01743 13.5663 9.04471 13.5 9.04471Z" fill="black"/>
<path d="M13 9.5626C12.9337 9.5626 12.8701 9.53532 12.8232 9.48677C12.7763 9.43821 12.75 9.37235 12.75 9.30368V8.26796C12.75 8.19929 12.7763 8.13343 12.8232 8.08487C12.8701 8.03631 12.9337 8.00903 13 8.00903C13.0663 8.00903 13.1299 8.03631 13.1768 8.08487C13.2237 8.13343 13.25 8.19929 13.25 8.26796V9.30368C13.25 9.37235 13.2237 9.43821 13.1768 9.48677C13.1299 9.53532 13.0663 9.5626 13 9.5626Z" fill="black"/>
<path d="M15.25 11.8929H13.75C13.6837 11.8929 13.6201 11.8656 13.5732 11.817C13.5263 11.7685 13.5 11.7026 13.5 11.6339C13.5 11.5653 13.5263 11.4994 13.5732 11.4508C13.6201 11.4023 13.6837 11.375 13.75 11.375H15.25C15.3163 11.375 15.3799 11.4023 15.4268 11.4508C15.4737 11.4994 15.5 11.5653 15.5 11.6339C15.5 11.7026 15.4737 11.7685 15.4268 11.817C15.3799 11.8656 15.3163 11.8929 15.25 11.8929Z" fill="black"/>
<path d="M14.5 12.6696C14.4337 12.6696 14.3701 12.6423 14.3232 12.5937C14.2763 12.5452 14.25 12.4793 14.25 12.4106V10.8571C14.25 10.7884 14.2763 10.7225 14.3232 10.674C14.3701 10.6254 14.4337 10.5981 14.5 10.5981C14.5663 10.5981 14.6299 10.6254 14.6768 10.674C14.7237 10.7225 14.75 10.7884 14.75 10.8571V12.4106C14.75 12.4793 14.7237 12.5452 14.6768 12.5937C14.6299 12.6423 14.5663 12.6696 14.5 12.6696Z" fill="black"/>
</g>
<defs>
<clipPath id="clip0_918_1132">
<rect width="16" height="16.5714" fill="white" transform="translate(0 0.5)"/>
</clipPath>
</defs>
</svg>
